<svg width="508" height="450" viewBox="0 0 508 450" fill="none" xmlns="http://www.w3.org/2000/svg">
<path d="M501.859 450.108H6.14119C2.68145 450.108 -0.122986 447.304 -0.122986 443.843C-0.122986 440.383 2.68145 437.578 6.14119 437.578H501.859C505.318 437.578 508.123 440.383 508.123 443.843C508.123 447.304 505.318 450.108 501.859 450.108Z" fill="#B6B9D1"/>
<path d="M405.686 412.399C408.246 421.735 409.173 432.981 406.057 437.006C402.94 441.031 372.366 443.113 367.952 438.565C363.538 434.017 382.486 433.072 384.18 425.978C385.875 418.885 390.522 406.692 390.522 406.692L405.686 412.399Z" fill="#61648A"/>
<path d="M354.032 412.399C356.593 421.735 357.519 432.981 354.403 437.006C351.287 441.031 320.713 443.113 316.298 438.565C311.885 434.017 330.832 433.072 332.527 425.978C334.221 418.885 338.868 406.692 338.868 406.692L354.032 412.399Z" fill="#61648A"/>
<path d="M409.079 192.815C415.817 224.426 412.325 417.613 412.325 417.613H384.236L365.782 187.186L409.079 192.815Z" fill="#2A2B3D"/>
<path d="M341.085 192.815L330.293 417.613H357.056C357.056 417.613 380.929 269.232 382.373 267.486C383.817 265.74 365.782 187.185 365.782 187.185L341.085 192.815Z" fill="#2A2B3D"/>
<path opacity="0.47" d="M370.141 250.6C359.191 297.636 369.584 340.709 369.584 340.709L375.691 304.197L370.141 250.6Z" fill="#1B1D28"/>
<path d="M367.066 192.811V231.811L370.627 233.831V192.09" stroke="#3B3D4F" stroke-miterlimit="10"/>
<path opacity="0.47" d="M340.905 200.439C367.065 200.502 411.55 218.296 411.55 218.296C411.55 218.296 411.885 200.076 409.079 192.816C406.272 185.554 341.086 192.816 341.086 192.816L340.905 200.439Z" fill="#1B1D28"/>
<path d="M285.771 124.865C283.66 118.122 283.005 112.934 280.063 111.664C277.472 110.546 280.045 116.952 280.045 116.952C280.045 116.952 270.743 109.471 266.944 110.189C263.143 110.908 269.496 113.301 269.496 113.301C269.496 113.301 263.551 110.501 262.476 112.161C261.89 113.065 267.177 116.141 267.177 116.141C267.177 116.141 262.779 114.322 262.027 115.397C261.276 116.473 266.385 120.801 266.385 120.801C266.385 120.801 262.856 118.672 262.561 119.949C262.265 121.226 281.456 132.489 281.456 132.489L285.771 124.865Z" fill="#F4B8AB"/>
<path d="M272.735 119.761C277.453 120.52 280.328 123.346 280.328 123.346" stroke="#E56A85" stroke-miterlimit="10" stroke-linecap="round"/>
<path d="M416.246 141.742L409.081 192.815H341.081L340.803 147.772C340.803 147.772 330.753 163.83 320.792 163.551C314.262 163.362 298.083 151.449 287.678 143.236C287.667 143.225 287.667 143.225 287.656 143.225C287.645 143.213 287.645 143.213 287.645 143.213C282.163 138.878 278.297 135.591 278.297 135.591L285.428 120.068L318.902 131.924C328.502 117.365 347.111 98.125 361.595 99.5623L377.127 97.4232L416.246 141.742Z" fill="#61648A"/>
<path opacity="0.36" d="M392.697 121.554C401.297 145.864 382.173 144.961 372.445 150.975C362.718 156.987 359.636 181.042 350.326 181.556C341.018 182.07 340.906 164.598 340.906 164.598L341.086 192.815H409.079L416.251 141.74L392.697 121.554Z" fill="#383952"/>
<path d="M373.088 176.318H363.885C362.851 176.318 361.989 175.529 361.897 174.501L359.831 151.407H377.14L375.074 174.501C374.983 175.529 374.12 176.318 373.088 176.318Z" fill="white"/>
<path d="M377.057 150.975C377.057 152.226 373.219 153.24 368.486 153.24C363.751 153.24 359.914 152.226 359.914 150.975C359.914 149.723 363.752 148.709 368.486 148.709C373.22 148.709 377.057 149.723 377.057 150.975Z" fill="#DFE0E5"/>
<path d="M379.479 173.608H370.627V155.588H379.479C381.689 155.588 383.488 157.386 383.488 159.597V169.6C383.488 171.81 381.689 173.608 379.479 173.608ZM372.855 171.379H379.478C380.459 171.379 381.259 170.58 381.259 169.598V159.596C381.259 158.614 380.459 157.815 379.478 157.815H372.855V171.379Z" fill="white"/>
<path d="M394.732 153.262C391.867 153.484 387.97 152.548 385.788 151.613C383.605 150.676 379.241 153.172 378.461 154.419C377.682 155.666 382.515 155.978 382.515 155.978C382.515 155.978 375.968 158.161 376.28 160.032C376.592 161.903 379.397 161.903 379.397 161.903C379.397 161.903 380.489 169.543 383.606 171.257C386.724 172.973 394.83 169.386 395.766 168.295C396.7 167.203 398.416 163.929 400.909 163.305C403.403 162.681 394.732 153.262 394.732 153.262Z" fill="#F4B8AB"/>
<path d="M377.124 97.4186C387.17 95.0371 410.473 97.8628 421.342 112.987C432.211 128.111 450.254 153.291 446.946 159.434C443.638 165.578 399.786 167.35 399.786 167.35L394.021 151.281L406.081 142.3L377.124 97.4186Z" fill="#61648A"/>
<path d="M365.928 98.0508C357.588 99.7746 360.648 113.819 360.648 113.819L372.091 107.11L384.79 109.302C384.79 109.302 384.022 98.8106 377.124 97.4186C370.225 96.0255 365.928 98.0508 365.928 98.0508Z" fill="#7C81A5"/>
<path d="M402.396 71.7791C399.598 87.3428 377.921 92.9166 377.921 92.9166L365.504 76.5513L356.256 64.3667C356.256 64.3667 347.884 66.5127 345.517 62.4434C343.161 58.3614 348.094 55.5739 348.094 55.5739C348.094 55.5739 337.576 49.9873 340.154 42.4775C342.682 35.1034 355.763 40.1343 356.245 40.3199C355.862 39.8385 346.023 27.5436 352.04 21.6613C358.181 15.6432 374.285 23.8073 380.067 37.7551C380.067 37.7551 380.289 30.2453 384.79 30.4541C389.303 30.6756 394.839 43.3417 393.569 47.411C393.569 47.411 405.183 56.2038 402.396 71.7791Z" fill="#6D3744"/>
<path d="M402.396 71.7791C399.598 87.3428 377.921 92.9166 377.921 92.9166L365.504 76.5513C366.318 71.7663 366.194 62.9979 372.174 58.6571C378.98 53.7121 386.735 57.8185 393.567 47.4098C393.567 47.4098 405.183 56.2038 402.396 71.7791Z" fill="#542633"/>
<path d="M352.74 66.2435C350.41 79.5754 353.769 94.8897 365.095 95.3804L365.356 99.9995C365.55 103.422 368.48 106.039 371.901 105.846C375.323 105.652 377.939 102.722 377.746 99.3001L377.485 94.6809C377.485 94.6809 386.279 90.3414 387.763 84.6075C389.247 78.8736 387.712 83.7062 387.712 83.7062L387.215 60.6802L356.396 62.4213L352.74 66.2435Z" fill="#F4B8AB"/>
<path d="M386.658 75.1024C389.199 69.7757 392.654 71.7547 393.489 74.7162C394.325 77.6776 388.738 85.3197 387.094 82.8362C385.45 80.3538 386.658 75.1024 386.658 75.1024Z" fill="#F4B8AB"/>
<path d="M372.88 77.2171C373.566 77.1776 373.865 76.3088 373.77 74.6314C373.675 72.9552 373.28 72.1235 372.595 72.163C371.909 72.2012 371.61 73.0724 371.705 74.7486C371.8 76.4248 372.196 77.2554 372.88 77.2171Z" fill="#191918"/>
<path d="M360.704 77.9039C361.39 77.8656 361.689 76.9956 361.594 75.3182C361.499 73.642 361.104 72.8103 360.419 72.8497C359.734 72.888 359.434 73.7592 359.529 75.4354C359.623 77.1127 360.019 77.9433 360.704 77.9039Z" fill="#191918"/>
<path d="M365.647 85.8337C371.487 85.6388 375.772 81.1832 375.772 81.1832C375.772 81.1832 377.105 88.2337 372.737 89.4274C368.37 90.6198 365.647 85.8337 365.647 85.8337Z" fill="#E56A85"/>
<path opacity="0.53" d="M365.095 95.3804C370.11 95.5474 375.885 95.0382 375.885 95.0382L365.355 99.9995L365.095 95.3804Z" fill="#DD6595"/>
<path opacity="0.53" d="M387.037 76.4712C389.412 73.6768 390.715 74.6964 390.701 77.4607C390.687 80.2261 387.479 82.3872 386.358 81.6587C385.239 80.9303 387.037 76.4712 387.037 76.4712Z" fill="#DD6595"/>
<path d="M389.902 64.4165C382.022 77.9676 359.718 69.3512 355.261 63.6068C350.804 57.8625 360.076 49.5488 370.225 50.6682C380.376 51.7864 392.415 60.0967 389.902 64.4165Z" fill="#6D3744"/>
<path opacity="0.36" d="M342.741 138.232L340.802 147.771C340.802 147.771 330.752 163.829 320.79 163.55C314.261 163.361 298.082 151.448 287.676 143.235C288.412 143.681 300.412 150.846 318.896 155.471C336.914 159.973 342.196 140.449 342.741 138.232Z" fill="#383952"/>
<path d="M232.248 436.694H190.855V442.357H232.248V436.694Z" fill="#1F202D"/>
<path d="M215.862 353.729H207.241V437.833H215.862V353.729Z" fill="#2A2B3D"/>
<path d="M238.79 353.729H184.312C178.005 353.729 172.894 348.615 172.894 342.309V321.824H250.21V342.309C250.209 348.615 245.097 353.729 238.79 353.729Z" fill="#2A2B3D"/>
<path d="M224.996 353.729H198.106V359.392H224.996V353.729Z" fill="#1F202D"/>
<path d="M308.612 411.179C309.893 420.774 313.422 431.493 317.861 433.985C322.299 436.476 351.267 426.475 353.559 420.566C355.85 414.657 338.033 421.171 333.708 415.3C329.383 409.43 320.352 400.012 320.352 400.012L308.612 411.179Z" fill="#D35473"/>
<path d="M327.674 409.876L308.453 417.198C308.453 417.198 278.827 381.505 272.242 365.869C265.668 350.235 209.301 278.468 209.301 278.468L244.732 282.647C253.345 288.398 263.172 293.947 272.242 299.764C283.495 306.975 293.557 314.596 298.571 323.49C305.49 335.748 318.815 379.666 324.721 399.735C326.548 405.943 327.674 409.876 327.674 409.876Z" fill="#FFC55A"/>
<path d="M327.674 409.876L308.453 417.198C308.453 417.198 278.827 381.505 272.242 365.869C265.668 350.235 209.301 278.468 209.301 278.468L244.732 282.647C253.345 288.398 263.172 293.947 272.242 299.764C269.678 309.961 292.152 325.997 293.813 350.145C295.407 373.18 294.425 396.827 324.721 399.735C326.548 405.943 327.674 409.876 327.674 409.876Z" fill="#F49947"/>
<path d="M286.019 342.085C289.691 357.984 280.692 380.505 280.692 380.505L273.805 370.078L286.019 342.085Z" fill="#E28437"/>
<path d="M232.67 415.618C229.981 424.918 226.665 438.999 229.727 443.067C232.788 447.135 253.836 449.636 258.312 445.149C262.788 440.663 255.489 438.604 251.753 432.341C246.999 424.373 247.169 417.195 247.169 417.195L232.67 415.618Z" fill="#D35473"/>
<path d="M286.047 343.247C285.033 363.818 250.447 421.833 250.447 421.833L229.868 417.198C231.929 374.294 244.731 349.823 244.731 349.823C244.731 349.823 213.421 346.947 192.207 341.187C170.993 335.425 148.418 310.741 157.867 285.201L209.299 278.47C209.299 278.47 217.344 283.039 228.218 289.937C249.488 303.399 281.6 325.709 285.633 340.017C285.958 341.142 286.103 342.223 286.047 343.247Z" fill="#FFC55A"/>
<path d="M286.047 343.247C285.033 363.818 250.447 421.833 250.447 421.833L229.868 417.198C231.929 374.294 244.731 349.823 244.731 349.823C244.731 349.823 213.421 346.947 192.207 341.187C170.993 335.425 148.418 310.741 157.867 285.201L209.299 278.47C209.299 278.47 217.344 283.039 228.218 289.937L228.497 290.438C228.497 290.438 189.868 302.417 193.823 325.875C197.778 349.321 236.998 347.961 252.765 347.828C266.169 347.728 278.704 344.173 285.634 340.016C285.958 341.142 286.103 342.223 286.047 343.247Z" fill="#F49947"/>
<path d="M219.395 209.455C214.559 224.944 204.23 269.498 154.848 286.291C111.874 300.89 92.3632 274.2 88.8652 249.159C88.3526 245.415 88.1855 241.704 88.3525 238.182C89.6457 211.07 109.01 218.814 132.899 205.799C156.776 192.782 143.873 181.695 153.879 160.086C163.885 138.49 177.432 137.788 192.932 138.869C208.431 139.95 207.372 152.263 207.372 152.263C207.372 152.263 212.296 160.387 207.372 168.188L207.383 168.199C207.83 168.891 224.175 194.166 219.395 209.455Z" fill="#6D3744"/>
<path d="M219.394 209.455C214.559 224.944 204.23 269.498 154.848 286.291C111.874 300.89 92.3632 274.2 88.8652 249.159C98.7143 258.799 123.394 256.414 128.185 235.966C133.901 211.55 146.013 206.88 155.651 196.784C165.299 186.688 155.774 172.558 162.837 163.442L170.18 155.051L207.372 168.189L207.383 168.201C207.83 168.891 224.175 194.166 219.394 209.455Z" fill="#542633"/>
<path d="M202.016 191.15C220.536 193.383 229.575 208.389 231.793 229.367C234.011 250.346 236.082 278.469 236.082 278.469L156.29 285.307C156.29 285.307 157.026 218.057 157.39 216.586C157.753 215.116 179.332 192.395 179.332 192.395L202.016 191.15Z" fill="#D35473"/>
<path opacity="0.38" d="M173.448 214.502C174.884 245.81 200.017 248.745 209.303 249.072C218.588 249.398 232.209 233.411 232.209 233.411L242.071 267.665L234.57 272.886L155.654 274.161C155.654 274.161 153.248 239.669 154.281 238.663C155.316 237.655 173.448 214.502 173.448 214.502Z" fill="#8E253E"/>
<path d="M195.644 258.747C205.217 253.912 218.658 259.794 216.977 270.717H193.824L195.644 258.747Z" fill="#F4B8AB"/>
<path d="M179.332 192.395C158.675 192.177 151.669 201.583 146.414 216.586C141.16 231.591 135.322 259.91 141.744 269.545C148.166 279.18 197.874 271.589 197.874 271.589L198.596 255.036L165.68 251.152L172.893 216.586L179.332 192.395Z" fill="#D35473"/>
<path d="M219.179 262.03L228.416 221.874C230.241 213.936 237.246 208.268 245.388 208.139L313.876 207.05C318.676 206.974 322.262 211.443 321.148 216.114L308.405 265.822C307.726 268.468 305.327 270.306 302.595 270.271L224.871 269.276C221.098 269.228 218.332 265.709 219.179 262.03Z" fill="#4D94CE"/>
<path d="M224.403 261.495L233.47 222.079C235.335 213.973 242.488 208.185 250.802 208.052L318.995 206.969C323.795 206.892 327.382 211.362 326.267 216.033L313.597 265.455C312.876 268.269 310.323 270.224 307.419 270.187L230.456 269.202C226.444 269.151 223.503 265.406 224.403 261.495Z" fill="#58AEDD"/>
<path d="M277.23 229.541L277.69 229.528C282.332 229.386 285.785 233.778 284.552 238.255L282.093 247.186C281.323 249.985 278.883 252.003 275.989 252.232C271.359 252.601 267.695 248.379 268.71 243.845L270.708 234.928C271.397 231.856 274.081 229.639 277.23 229.541Z" fill="#4D94CE"/>
<path d="M291.285 273.16L198.257 274.639C196.836 274.661 195.666 273.527 195.643 272.106C195.619 270.685 196.754 269.515 198.175 269.492L291.202 268.013C292.623 267.991 293.793 269.124 293.817 270.545C293.84 271.966 292.707 273.137 291.285 273.16Z" fill="#4D94CE"/>
<path d="M313.216 272.811L220.188 274.29C218.767 274.313 217.597 273.178 217.574 271.757C217.55 270.336 218.685 269.166 220.105 269.143L313.133 267.664C314.554 267.642 315.724 268.775 315.748 270.196C315.771 271.618 314.636 272.789 313.216 272.811Z" fill="#7DD0F4"/>
<path d="M202.016 191.15C207.408 195.644 204.947 198.753 204.947 198.753C204.947 198.753 206.572 205.068 202.184 206.043C197.796 207.019 194.871 204.093 194.871 204.093C194.871 204.093 192.982 209.62 188.402 208.806C183.821 207.993 184.68 200.841 184.68 200.841C184.68 200.841 183.295 203.115 179.333 200.841C175.37 198.566 180.084 192.395 180.084 192.395L202.016 191.15Z" fill="#E57797"/>
<path d="M202.639 156.076C207.544 168.697 207.256 184.38 196.24 187.087L196.891 191.669C197.373 195.064 195.013 198.206 191.618 198.689C188.224 199.171 185.081 196.811 184.599 193.415L183.947 188.833C183.947 188.833 174.468 186.305 171.885 180.971C169.303 175.637 171.757 180.077 171.757 180.077L167.722 157.391L198.299 153.043L202.639 156.076Z" fill="#F4B8AB"/>
<path d="M171.104 171.43C167.566 166.704 164.565 169.323 164.326 172.394C164.089 175.463 171.07 181.863 172.195 179.103C173.321 176.344 171.104 171.43 171.104 171.43Z" fill="#F4B8AB"/>
<path d="M185.036 170.798C184.356 170.894 183.891 170.101 183.656 168.436C183.419 166.773 183.644 165.879 184.324 165.783C185.004 165.687 185.468 166.481 185.704 168.145C185.94 169.808 185.716 170.701 185.036 170.798Z" fill="#191918"/>
<path d="M197.116 169.08C196.435 169.176 195.971 168.383 195.734 166.718C195.498 165.055 195.723 164.161 196.402 164.065C197.082 163.969 197.547 164.763 197.784 166.427C198.02 168.092 197.795 168.984 197.116 169.08Z" fill="#191918"/>
<path d="M193.824 177.83C188.057 178.786 182.979 175.257 182.979 175.257" stroke="#E56A85" stroke-miterlimit="10" stroke-linecap="round"/>
<path opacity="0.53" d="M196.24 187.087C191.354 188.235 185.587 188.871 185.587 188.871L196.891 191.669L196.24 187.087Z" fill="#DD6595"/>
<path opacity="0.53" d="M171.001 172.848C168.122 170.574 167.045 171.829 167.601 174.539C168.157 177.249 171.73 178.739 172.685 177.804C173.641 176.868 171.001 172.848 171.001 172.848Z" fill="#DD6595"/>
<path d="M196.892 148.289C201.081 162.43 172.888 171.603 166.246 169.088C159.605 166.574 159.155 156.809 168.417 150.555C177.681 144.299 195.483 143.533 196.892 148.289Z" fill="#6D3744"/>
<path d="M96.5386 282.65H85.366V440.721H96.5386V282.65Z" fill="#C46C3B"/>
<path d="M396.296 282.65H385.123V440.721H396.296V282.65Z" fill="#C46C3B"/>
<path d="M96.5386 282.65H85.366V303.777H96.5386V282.65Z" fill="#AA5327"/>
<path d="M396.296 282.65H385.123V303.777H396.296V282.65Z" fill="#AA5327"/>
<path d="M413.652 274.29H68.0082V286.011H413.652V274.29Z" fill="#C46C3B"/>
<path d="M308.847 -0.474976H175.653V91.2323H308.847V-0.474976Z" fill="#D0E6EF"/>
<path d="M208.924 0.0853271H175.376V90.672H208.924V0.0853271Z" fill="#61648A"/>
<path d="M304.866 3.97241H178.205V10.48H304.866V3.97241Z" fill="white"/>
<path d="M182.05 8.76092C182.814 8.76092 183.434 8.14082 183.434 7.37588C183.434 6.61094 182.814 5.99084 182.05 5.99084C181.285 5.99084 180.665 6.61094 180.665 7.37588C180.665 8.14082 181.285 8.76092 182.05 8.76092Z" fill="#D35473"/>
<path d="M187.219 8.76092C187.984 8.76092 188.604 8.14082 188.604 7.37588C188.604 6.61094 187.984 5.99084 187.219 5.99084C186.454 5.99084 185.834 6.61094 185.834 7.37588C185.834 8.14082 186.454 8.76092 187.219 8.76092Z" fill="#FFC55A"/>
<path d="M192.388 8.76092C193.153 8.76092 193.773 8.14082 193.773 7.37588C193.773 6.61094 193.153 5.99084 192.388 5.99084C191.623 5.99084 191.003 6.61094 191.003 7.37588C191.003 8.14082 191.623 8.76092 192.388 8.76092Z" fill="#54D15F"/>
<path d="M298.828 5.7948H303.045" stroke="#61648A" stroke-width="0.5" stroke-miterlimit="10" stroke-linecap="round"/>
<path d="M298.828 7.2262H303.045" stroke="#61648A" stroke-width="0.5" stroke-miterlimit="10" stroke-linecap="round"/>
<path d="M298.828 8.65881H303.045" stroke="#61648A" stroke-width="0.5" stroke-miterlimit="10" stroke-linecap="round"/>
<path d="M186.728 24.2377H195.604" stroke="white" stroke-width="2" stroke-miterlimit="10" stroke-linecap="round"/>
<path d="M186.728 32.0815H195.604" stroke="white" stroke-width="2" stroke-miterlimit="10" stroke-linecap="round"/>
<path d="M186.728 39.9266H195.604" stroke="white" stroke-width="2" stroke-miterlimit="10" stroke-linecap="round"/>
<path d="M191.443 47.7706H200.319" stroke="white" stroke-width="2" stroke-miterlimit="10" stroke-linecap="round"/>
<path d="M186.728 55.6157H195.604" stroke="white" stroke-width="2" stroke-miterlimit="10" stroke-linecap="round"/>
<path d="M191.443 63.4607H200.319" stroke="white" stroke-width="2" stroke-miterlimit="10" stroke-linecap="round"/>
<path d="M191.443 71.3047H200.319" stroke="white" stroke-width="2" stroke-miterlimit="10" stroke-linecap="round"/>
<path d="M240.312 17.1443H248.559" stroke="#54D15F" stroke-width="1.5" stroke-miterlimit="10" stroke-linecap="round"/>
<path d="M251.513 17.1443H270.474" stroke="#2D292A" stroke-width="1.5" stroke-miterlimit="10" stroke-linecap="round"/>
<path d="M273.037 17.1443H279.436" stroke="#D35473" stroke-width="1.5" stroke-miterlimit="10" stroke-linecap="round"/>
<path d="M281.341 17.1443H293.614" stroke="#FFC55A" stroke-width="1.5" stroke-miterlimit="10" stroke-linecap="round"/>
<path d="M232.905 24.0962H243.563" stroke="#FFC55A" stroke-width="1.5" stroke-miterlimit="10" stroke-linecap="round"/>
<path d="M246.517 24.0962H271.531" stroke="#2D292A" stroke-width="1.5" stroke-miterlimit="10" stroke-linecap="round"/>
<path d="M274.093 24.0962H283.4" stroke="#54D15F" stroke-width="1.5" stroke-miterlimit="10" stroke-linecap="round"/>
<path d="M286.311 24.0962H295.619" stroke="#D35473" stroke-width="1.5" stroke-miterlimit="10" stroke-linecap="round"/>
<path d="M234.857 31.0481H247.431" stroke="#2D292A" stroke-width="1.5" stroke-miterlimit="10" stroke-linecap="round"/>
<path d="M250.386 31.0481H260.257" stroke="#D35473" stroke-width="1.5" stroke-miterlimit="10" stroke-linecap="round"/>
<path d="M262.819 31.0481H280.692" stroke="#FFC55A" stroke-width="1.5" stroke-miterlimit="10" stroke-linecap="round"/>
<path d="M283.093 31.0481H288.643" stroke="#2D292A" stroke-width="1.5" stroke-miterlimit="10" stroke-linecap="round"/>
<path d="M228.918 44.9507H238.834" stroke="#FFC55A" stroke-width="1.5" stroke-miterlimit="10" stroke-linecap="round"/>
<path d="M241.789 44.9507H243.759" stroke="#2D292A" stroke-width="1.5" stroke-miterlimit="10" stroke-linecap="round"/>
<path d="M246.321 44.9507H262.819" stroke="#D35473" stroke-width="1.5" stroke-miterlimit="10" stroke-linecap="round"/>
<path d="M264.793 44.9507H287.842" stroke="#54D15F" stroke-width="1.5" stroke-miterlimit="10" stroke-linecap="round"/>
<path d="M272.201 58.8544H290.461" stroke="#2D292A" stroke-width="1.5" stroke-miterlimit="10" stroke-linecap="round"/>
<path d="M234.857 51.9025H242.281" stroke="#54D15F" stroke-width="1.5" stroke-miterlimit="10" stroke-linecap="round"/>
<path d="M245.236 51.9025H263.512" stroke="#D35473" stroke-width="1.5" stroke-miterlimit="10" stroke-linecap="round"/>
<path d="M266.074 51.9025H275.886" stroke="#FFC55A" stroke-width="1.5" stroke-miterlimit="10" stroke-linecap="round"/>
<path d="M279.072 51.9025H290.171" stroke="#D35473" stroke-width="1.5" stroke-miterlimit="10" stroke-linecap="round"/>
<path d="M235.453 58.8544H245.04" stroke="#FFC55A" stroke-width="1.5" stroke-miterlimit="10" stroke-linecap="round"/>
<path d="M247.994 58.8544H257.455" stroke="#2D292A" stroke-width="1.5" stroke-miterlimit="10" stroke-linecap="round"/>
<path d="M260.017 58.8544H269.169" stroke="#54D15F" stroke-width="1.5" stroke-miterlimit="10" stroke-linecap="round"/>
<path d="M250.386 71.9137H255.977" stroke="#D35473" stroke-width="1.5" stroke-miterlimit="10" stroke-linecap="round"/>
<path d="M258.931 71.9137H277.383" stroke="#2D292A" stroke-width="1.5" stroke-miterlimit="10" stroke-linecap="round"/>
<path d="M279.945 71.9137H293.009" stroke="#FFC55A" stroke-width="1.5" stroke-miterlimit="10" stroke-linecap="round"/>
<path d="M241.882 78.8656H248.908" stroke="#D35473" stroke-width="1.5" stroke-miterlimit="10" stroke-linecap="round"/>
<path d="M251.862 78.8656H257.743" stroke="#2D292A" stroke-width="1.5" stroke-miterlimit="10" stroke-linecap="round"/>
<path d="M260.305 78.8656H275.762" stroke="#FFC55A" stroke-width="1.5" stroke-miterlimit="10" stroke-linecap="round"/>
<path d="M278.665 78.8656H294.401" stroke="#54D15F" stroke-width="1.5" stroke-miterlimit="10" stroke-linecap="round"/>
<path opacity="0.21" d="M231.326 17.1443H234.484" stroke="#383952" stroke-width="1.5" stroke-miterlimit="10" stroke-linecap="round"/>
<path opacity="0.21" d="M223.04 24.0962H226.198" stroke="#383952" stroke-width="1.5" stroke-miterlimit="10" stroke-linecap="round"/>
<path opacity="0.21" d="M226.868 31.0481H230.027" stroke="#383952" stroke-width="1.5" stroke-miterlimit="10" stroke-linecap="round"/>
<path opacity="0.21" d="M219.342 37.9988H222.5" stroke="#383952" stroke-width="1.5" stroke-miterlimit="10" stroke-linecap="round"/>
<path opacity="0.21" d="M219.342 44.9507H222.5" stroke="#383952" stroke-width="1.5" stroke-miterlimit="10" stroke-linecap="round"/>
<path opacity="0.21" d="M226.479 51.9025H229.637" stroke="#383952" stroke-width="1.5" stroke-miterlimit="10" stroke-linecap="round"/>
<path opacity="0.21" d="M227.338 58.8544H230.496" stroke="#383952" stroke-width="1.5" stroke-miterlimit="10" stroke-linecap="round"/>
<path opacity="0.21" d="M219.342 65.8063H222.5" stroke="#383952" stroke-width="1.5" stroke-miterlimit="10" stroke-linecap="round"/>
<path opacity="0.21" d="M239.565 71.9137H242.723" stroke="#383952" stroke-width="1.5" stroke-miterlimit="10" stroke-linecap="round"/>
<path opacity="0.21" d="M232.137 78.8656H235.296" stroke="#383952" stroke-width="1.5" stroke-miterlimit="10" stroke-linecap="round"/>
<path d="M179.158 79.0326H116.6V122.378H179.158V79.0326Z" fill="#54D15F"/>
<path d="M134.292 96.4952C134.076 96.6032 133.842 96.6977 133.59 96.7786C133.347 96.8596 133.091 96.9361 132.821 97.0081C133.361 97.1341 133.851 97.305 134.292 97.521L138.706 99.829C138.94 99.937 139.102 100.072 139.192 100.234C139.291 100.396 139.34 100.576 139.34 100.774V103.392L128.529 97.7369V96.2658L139.34 90.624V93.2424C139.34 93.4314 139.291 93.6068 139.192 93.7688C139.102 93.9308 138.94 94.0657 138.706 94.1737L134.292 96.4952ZM146.482 106.051C146.311 106.501 146.037 106.838 145.659 107.063C145.29 107.297 144.912 107.414 144.525 107.414H142.946L150.734 87.2632C150.887 86.8583 151.13 86.5434 151.463 86.3184C151.796 86.0935 152.178 85.981 152.61 85.981H154.203L146.482 106.051ZM168.609 96.2658V97.7369L157.798 103.392V100.774C157.798 100.576 157.843 100.396 157.933 100.234C158.032 100.072 158.198 99.937 158.432 99.829L162.845 97.521C163.07 97.413 163.304 97.3185 163.547 97.2375C163.79 97.1476 164.051 97.0711 164.33 97.0081C164.051 96.9451 163.79 96.8731 163.547 96.7921C163.304 96.7022 163.07 96.6032 162.845 96.4952L158.432 94.1737C158.198 94.0657 158.032 93.9308 157.933 93.7688C157.843 93.6068 157.798 93.4314 157.798 93.2424V90.624L168.609 96.2658Z" fill="white"/>
<path d="M341.868 76.9968H295.619V104.348H341.868V76.9968Z" fill="#D35473"/>
<path d="M310.43 90.6721C310.43 91.9817 309.368 93.0431 308.059 93.0431C306.75 93.0431 305.688 91.9817 305.688 90.6721C305.688 89.3624 306.75 88.301 308.059 88.301C309.367 88.301 310.43 89.3624 310.43 90.6721Z" fill="white"/>
<path d="M321.113 90.6721C321.113 91.9817 320.052 93.0431 318.742 93.0431C317.433 93.0431 316.371 91.9817 316.371 90.6721C316.371 89.3624 317.433 88.301 318.742 88.301C320.053 88.301 321.113 89.3624 321.113 90.6721Z" fill="white"/>
<path d="M331.797 90.6721C331.797 91.9817 330.736 93.0431 329.426 93.0431C328.117 93.0431 327.056 91.9817 327.056 90.6721C327.056 89.3624 328.117 88.301 329.426 88.301C330.737 88.301 331.797 89.3624 331.797 90.6721Z" fill="white"/>
<path d="M89.8417 255.774C80.6026 241.775 73.45 229.256 77.6219 214.351C77.6219 214.351 80.6026 222.101 86.2649 227.765C91.9271 233.43 100.42 243.006 98.8558 253.57C97.2936 264.131 89.8417 255.774 89.8417 255.774Z" fill="#42A547"/>
<path d="M91.034 241.778C83.1206 224.091 91.6302 197.821 96.3993 193.12C96.3993 193.12 102.36 207.431 103.254 217.45C104.148 227.467 107.725 241.18 103.254 250.718C98.7828 260.257 94.0148 251.911 94.0148 251.911L91.034 241.778Z" fill="#54D15F"/>
<path d="M100.571 255.29C99.3789 240.88 110.705 228.361 115.176 222.399C115.176 222.399 118.872 234.805 114.648 244.128C110.424 253.451 103.255 255.772 103.255 255.772L100.571 255.29Z" fill="#5FD365"/>
<path d="M114.762 250.586C114.74 259.334 112.945 267.246 111.809 271.392C111.286 273.32 110.895 274.435 110.895 274.435H87.34C87.34 274.435 81.0886 262.209 82.2809 252.659C85.8914 251.768 89.7014 251.188 93.4012 250.831C104.634 249.729 114.762 250.586 114.762 250.586Z" fill="#FFC55A"/>
<path d="M111.809 271.392C111.286 273.32 110.895 274.435 110.895 274.435H87.34C87.34 274.435 81.0886 262.209 82.2809 252.659C85.8914 251.768 89.7014 251.188 93.4012 250.831C90.1607 265.943 103.475 270.656 111.809 271.392Z" fill="#F49947"/>
<path d="M285.076 149.878H238.827V187.087H285.076V149.878Z" fill="#FFC55A"/>
<path d="M238.827 168.291L256.027 177.993L273.861 161.561L285.076 169.088V187.087H238.827V168.291Z" fill="#F49947"/>
<path d="M254.951 168.29C257.396 168.29 259.378 166.308 259.378 163.862C259.378 161.417 257.396 159.434 254.951 159.434C252.506 159.434 250.524 161.417 250.524 163.862C250.524 166.308 252.506 168.29 254.951 168.29Z" fill="white"/>
</svg>
